<svg width="4608" height="1152" fill="none" xmlns="http://www.w3.org/2000/svg"><circle cx="576" cy="576" r="512" fill="#23995B"/><path d="M721.698 704.506c-86.011 86.011-191.907 76.581-260.227 47.113-19.742 17.309-45.267 57.516-45.267 57.516-8.387 14.211-50.784-1.488-47.008-18.901 24.295-58.77 106.525-219.453 277.263-294.65 4.572-3 8.066-4.38 12.318-6.058 2.861-1.129 6.066-2.393 10.171-4.378C522.5 502 446.132 566.075 375.211 678.94c-1.668 2.654-5.699 2.237-6.802-.698-66.922-178.132 71.797-282.366 200.147-300.998l218.581-39.179c2.118-.38 4.153.943 4.596 3.048 23.904 113.475 2.589 290.769-70.035 363.393z" fill="#fff"/><path d="M1519.57 807.379L1418.6 631.133h-25.74v176.246H1280V340.69h192.71c36.96 0 68.2 6.381 93.72 19.143 25.52 12.761 44.66 30.364 57.42 52.807 12.76 22.004 19.14 47.307 19.14 75.912 0 33.885-9.46 62.709-28.38 86.473-18.48 23.763-45.54 40.046-81.18 48.847l110.88 183.507h-124.74zm-126.71-253.477h69.95c22.44 0 38.94-4.841 49.5-14.523 10.56-10.121 15.84-24.863 15.84-44.226 0-18.483-5.5-33.005-16.5-43.567-10.56-10.561-26.84-15.842-48.84-15.842h-69.95v118.158zM1819.69 434.424c28.16 0 52.36 6.381 72.6 19.143 20.24 12.761 35.2 30.144 44.88 52.147v-66.67h112.19v368.335h-112.19v-66.67c-9.68 22.004-24.64 39.386-44.88 52.148-20.24 12.762-44.44 19.143-72.6 19.143-30.36 0-57.64-7.481-81.84-22.443-23.75-15.403-42.67-37.406-56.75-66.01-13.64-28.604-20.46-62.049-20.46-100.335 0-38.726 6.82-72.171 20.46-100.335 14.08-28.604 33-50.388 56.75-65.35 24.2-15.402 51.48-23.103 81.84-23.103zm36.3 99.014c-24.2 0-43.78 7.922-58.74 23.764-14.52 15.842-21.78 37.846-21.78 66.01 0 28.164 7.26 50.167 21.78 66.01 14.96 15.842 34.54 23.763 58.74 23.763 23.76 0 43.12-8.141 58.08-24.423 15.4-16.283 23.1-38.066 23.1-65.35 0-27.724-7.7-49.508-23.1-65.35-14.96-16.282-34.32-24.424-58.08-24.424zM2096.71 335.409c0-17.163 6.16-31.245 18.48-42.246 12.32-11.442 28.6-17.163 48.84-17.163 20.24 0 36.51 5.721 48.83 17.163 12.32 11.001 18.48 25.083 18.48 42.246 0 16.722-6.16 30.804-18.48 42.246-12.32 11.002-28.59 16.503-48.83 16.503s-36.52-5.501-48.84-16.503c-12.32-11.442-18.48-25.524-18.48-42.246zm123.41 103.635v368.335h-112.85V439.044h112.85zM2511.88 435.084c42.23 0 75.67 14.082 100.31 42.246 25.08 28.164 37.62 66.89 37.62 116.177v213.872h-112.86v-200.67c0-24.643-6.59-43.786-19.79-57.428-12.76-14.082-29.92-21.123-51.48-21.123-22.88 0-41.14 7.261-54.78 21.783-13.2 14.522-19.8 35.205-19.8 62.049v195.389h-112.86V439.044h112.86v67.33c10.56-22.003 26.18-39.385 46.86-52.147 21.12-12.762 45.76-19.143 73.92-19.143zM2885.28 388.877c-18.48 0-31.9 3.96-40.26 11.882-8.36 7.921-12.98 20.683-13.86 38.285h66.66v95.055h-66.66v273.28H2718.3v-273.28h-44.21v-95.055h44.21v-3.96c0-45.767 13.2-80.972 39.6-105.616 26.84-25.084 65.56-37.626 116.16-37.626 10.56 0 18.48.22 23.76.66v97.035l-12.54-.66zM3099.88 434.424c36.52 0 69.08 7.701 97.68 23.103 29.04 14.962 51.7 36.746 67.97 65.35 16.72 28.604 25.08 62.049 25.08 100.335 0 38.286-8.36 71.731-25.08 100.335-16.27 28.604-38.93 50.607-67.97 66.01-28.6 14.962-61.16 22.443-97.68 22.443-36.52 0-69.3-7.481-98.34-22.443-29.04-15.403-51.91-37.406-68.63-66.01-16.28-28.604-24.42-62.049-24.42-100.335 0-38.286 8.14-71.731 24.42-100.335 16.72-28.604 39.59-50.388 68.63-65.35 29.04-15.402 61.82-23.103 98.34-23.103zm0 97.694c-21.56 0-39.82 7.921-54.78 23.764-14.52 15.402-21.78 37.845-21.78 67.33 0 29.484 7.26 51.928 21.78 67.33 14.96 15.402 33.22 23.103 54.78 23.103 21.56 0 39.6-7.701 54.12-23.103 14.52-15.402 21.78-37.846 21.78-67.33 0-29.485-7.26-51.928-21.78-67.33-14.52-15.843-32.56-23.764-54.12-23.764zM3442.19 508.355c14.08-22.444 32.12-40.266 54.12-53.468 22.44-13.202 46.64-19.803 72.6-19.803v120.798h-32.34c-29.92 0-53.24 6.381-69.96 19.143-16.28 12.762-24.42 34.325-24.42 64.689v167.665h-112.85V439.044h112.85v69.311zM3946.13 613.31c0 9.242-1.1 19.363-3.3 30.365h-255.41c1.32 27.724 8.36 47.747 21.12 60.069 12.76 11.882 29.04 17.823 48.84 17.823 16.72 0 30.58-4.181 41.58-12.542 11-8.362 18.26-19.143 21.78-32.345h119.45c-4.84 25.964-15.4 49.287-31.68 69.97-16.28 20.243-36.96 36.306-62.03 48.188-25.08 11.441-53.02 17.162-83.82 17.162-36.08 0-68.2-7.481-96.36-22.443-27.72-15.403-49.5-37.406-65.34-66.01-15.84-28.604-23.76-62.049-23.76-100.335 0-38.726 7.7-72.171 23.1-100.335 15.84-28.604 37.84-50.388 66-65.35 28.16-15.402 60.28-23.103 96.36-23.103 36.52 0 68.64 7.481 96.36 22.443 27.71 14.962 49.05 36.085 64.01 63.369 15.4 26.845 23.1 57.869 23.1 93.074zm-114.17-17.162c.44-24.204-6.16-42.246-19.8-54.128-13.2-12.322-29.7-18.483-49.5-18.483-20.68 0-37.84 6.161-51.48 18.483-13.64 12.322-21.34 30.364-23.1 54.128h143.88zM4119.14 434.424c46.64 0 83.82 11.661 111.54 34.985 28.16 23.323 45.75 54.128 52.79 92.414h-105.59c-3.08-14.963-10.12-26.624-21.12-34.986-10.56-8.801-23.98-13.202-40.26-13.202-12.76 0-22.44 2.861-29.04 8.582-6.6 5.281-9.9 12.982-9.9 23.103 0 11.442 5.94 20.023 17.82 25.744 12.32 5.721 31.46 11.442 57.42 17.163 28.16 6.601 51.26 13.422 69.3 20.463 18.04 6.601 33.66 17.602 46.86 33.005 13.19 15.402 19.79 36.085 19.79 62.049 0 21.123-5.72 39.826-17.16 56.108-11.43 16.283-27.93 29.045-49.49 38.286-21.56 9.241-47.08 13.862-76.56 13.862-49.72 0-89.54-11.002-119.46-33.005-29.92-22.003-48.18-53.468-54.78-94.394h108.9c1.76 15.842 8.36 27.944 19.8 36.305 11.88 8.362 27.06 12.542 45.54 12.542 12.76 0 22.44-2.86 29.04-8.581 6.6-6.161 9.9-14.082 9.9-23.764 0-12.761-6.16-21.783-18.48-27.064-11.88-5.72-31.46-11.661-58.74-17.822-27.28-5.721-49.72-11.882-67.32-18.483-17.6-6.601-32.78-17.163-45.54-31.685-12.76-14.962-19.14-35.205-19.14-60.729 0-33.005 12.54-59.629 37.62-79.872 25.08-20.683 60.5-31.024 106.26-31.024zM4540 710.345v97.034h-50.82c-43.12 0-76.78-10.561-100.98-31.684-23.75-21.564-35.63-56.989-35.63-106.276v-135.32h-49.5v-95.055h49.5v-90.433h112.85v90.433h73.92v95.055h-73.92v137.3c0 14.522 2.86 24.644 8.58 30.365 6.16 5.72 16.28 8.581 30.36 8.581H4540z" fill="#0A2540"/></svg>